<svg width="135" height="126" viewBox="0 0 135 126" fill="none" xmlns="http://www.w3.org/2000/svg"><rect x=".121" y=".243" width="1.245" height="1.245" rx=".622" fill="#01BCBA"/><rect x=".121" y="9.771" width="1.245" height="1.245" rx=".622" fill="#01BCBA"/><rect x=".121" y="19.297" width="1.245" height="1.245" rx=".622" fill="#01BCBA"/><rect x=".121" y="28.823" width="1.245" height="1.245" rx=".622" fill="#01BCBA"/><rect x=".121" y="38.35" width="1.245" height="1.245" rx=".622" fill="#01BCBA"/><rect x=".121" y="47.876" width="1.245" height="1.245" rx=".622" fill="#01BCBA"/><rect x=".121" y="57.402" width="1.245" height="1.245" rx=".622" fill="#01BCBA"/><rect x=".121" y="66.929" width="1.245" height="1.245" rx=".622" fill="#01BCBA"/><rect x=".121" y="76.455" width="1.245" height="1.245" rx=".622" fill="#01BCBA"/><rect x=".121" y="85.981" width="1.245" height="1.245" rx=".622" fill="#01BCBA"/><rect x=".121" y="95.508" width="1.245" height="1.245" rx=".622" fill="#01BCBA"/><rect x=".121" y="105.034" width="1.245" height="1.245" rx=".622" fill="#01BCBA"/><rect x=".121" y="114.561" width="1.245" height="1.245" rx=".622" fill="#01BCBA"/><rect x=".121" y="124.087" width="1.245" height="1.245" rx=".622" fill="#01BCBA"/><rect x="9.647" y=".244" width="1.245" height="1.245" rx=".622" fill="#01BCBA"/><rect x="9.647" y="9.771" width="1.245" height="1.245" rx=".622" fill="#01BCBA"/><rect x="9.647" y="19.297" width="1.245" height="1.245" rx=".622" fill="#01BCBA"/><rect x="9.647" y="28.823" width="1.245" height="1.245" rx=".622" fill="#01BCBA"/><rect x="9.647" y="38.35" width="1.245" height="1.245" rx=".622" fill="#01BCBA"/><rect x="9.647" y="47.876" width="1.245" height="1.245" rx=".622" fill="#01BCBA"/><rect x="9.647" y="57.402" width="1.245" height="1.245" rx=".622" fill="#01BCBA"/><rect x="9.647" y="66.929" width="1.245" height="1.245" rx=".622" fill="#01BCBA"/><rect x="9.647" y="76.455" width="1.245" height="1.245" rx=".622" fill="#01BCBA"/><rect x="9.647" y="85.981" width="1.245" height="1.245" rx=".622" fill="#01BCBA"/><rect x="9.647" y="95.508" width="1.245" height="1.245" rx=".622" fill="#01BCBA"/><rect x="9.647" y="105.034" width="1.245" height="1.245" rx=".622" fill="#01BCBA"/><rect x="9.647" y="114.561" width="1.245" height="1.245" rx=".622" fill="#01BCBA"/><rect x="9.647" y="124.087" width="1.245" height="1.245" rx=".622" fill="#01BCBA"/><rect x="19.173" y=".244" width="1.245" height="1.245" rx=".622" fill="#01BCBA"/><rect x="19.173" y="9.771" width="1.245" height="1.245" rx=".622" fill="#01BCBA"/><rect x="19.173" y="19.297" width="1.245" height="1.245" rx=".622" fill="#01BCBA"/><rect x="19.173" y="28.823" width="1.245" height="1.245" rx=".622" fill="#01BCBA"/><rect x="19.173" y="38.35" width="1.245" height="1.245" rx=".622" fill="#01BCBA"/><rect x="19.173" y="47.876" width="1.245" height="1.245" rx=".622" fill="#01BCBA"/><rect x="19.173" y="57.402" width="1.245" height="1.245" rx=".622" fill="#01BCBA"/><rect x="19.173" y="66.929" width="1.245" height="1.245" rx=".622" fill="#01BCBA"/><rect x="19.173" y="76.455" width="1.245" height="1.245" rx=".622" fill="#01BCBA"/><rect x="19.173" y="85.981" width="1.245" height="1.245" rx=".622" fill="#01BCBA"/><rect x="19.173" y="95.508" width="1.245" height="1.245" rx=".622" fill="#01BCBA"/><rect x="19.173" y="105.034" width="1.245" height="1.245" rx=".622" fill="#01BCBA"/><rect x="19.173" y="114.561" width="1.245" height="1.245" rx=".622" fill="#01BCBA"/><rect x="19.173" y="124.087" width="1.245" height="1.245" rx=".622" fill="#01BCBA"/><rect x="28.699" y=".244" width="1.245" height="1.245" rx=".622" fill="#01BCBA"/><rect x="28.699" y="9.771" width="1.245" height="1.245" rx=".622" fill="#01BCBA"/><rect x="28.699" y="19.297" width="1.245" height="1.245" rx=".622" fill="#01BCBA"/><rect x="28.699" y="28.823" width="1.245" height="1.245" rx=".622" fill="#01BCBA"/><rect x="28.699" y="38.35" width="1.245" height="1.245" rx=".622" fill="#01BCBA"/><rect x="28.699" y="47.876" width="1.245" height="1.245" rx=".622" fill="#01BCBA"/><rect x="28.699" y="57.402" width="1.245" height="1.245" rx=".622" fill="#01BCBA"/><rect x="28.699" y="66.929" width="1.245" height="1.245" rx=".622" fill="#01BCBA"/><rect x="28.699" y="76.455" width="1.245" height="1.245" rx=".622" fill="#01BCBA"/><rect x="28.699" y="85.981" width="1.245" height="1.245" rx=".622" fill="#01BCBA"/><rect x="28.699" y="95.508" width="1.245" height="1.245" rx=".622" fill="#01BCBA"/><rect x="28.699" y="105.034" width="1.245" height="1.245" rx=".622" fill="#01BCBA"/><rect x="28.699" y="114.561" width="1.245" height="1.245" rx=".622" fill="#01BCBA"/><rect x="28.699" y="124.087" width="1.245" height="1.245" rx=".622" fill="#01BCBA"/><rect x="38.226" y=".244" width="1.245" height="1.245" rx=".622" fill="#01BCBA"/><rect x="38.226" y="9.771" width="1.245" height="1.245" rx=".622" fill="#01BCBA"/><rect x="38.226" y="19.297" width="1.245" height="1.245" rx=".622" fill="#01BCBA"/><rect x="38.226" y="28.823" width="1.245" height="1.245" rx=".622" fill="#01BCBA"/><rect x="38.226" y="38.35" width="1.245" height="1.245" rx=".622" fill="#01BCBA"/><rect x="38.226" y="47.876" width="1.245" height="1.245" rx=".622" fill="#01BCBA"/><rect x="38.226" y="57.402" width="1.245" height="1.245" rx=".622" fill="#01BCBA"/><rect x="38.226" y="66.929" width="1.245" height="1.245" rx=".622" fill="#01BCBA"/><rect x="38.226" y="76.455" width="1.245" height="1.245" rx=".622" fill="#01BCBA"/><rect x="38.226" y="85.981" width="1.245" height="1.245" rx=".622" fill="#01BCBA"/><rect x="38.226" y="95.508" width="1.245" height="1.245" rx=".622" fill="#01BCBA"/><rect x="38.226" y="105.034" width="1.245" height="1.245" rx=".622" fill="#01BCBA"/><rect x="38.226" y="114.561" width="1.245" height="1.245" rx=".622" fill="#01BCBA"/><rect x="38.226" y="124.087" width="1.245" height="1.245" rx=".622" fill="#01BCBA"/><rect x="47.752" y=".244" width="1.245" height="1.245" rx=".622" fill="#01BCBA"/><rect x="47.752" y="9.771" width="1.245" height="1.245" rx=".622" fill="#01BCBA"/><rect x="47.752" y="19.297" width="1.245" height="1.245" rx=".622" fill="#01BCBA"/><rect x="47.752" y="28.823" width="1.245" height="1.245" rx=".622" fill="#01BCBA"/><rect x="47.752" y="38.35" width="1.245" height="1.245" rx=".622" fill="#01BCBA"/><rect x="47.752" y="47.876" width="1.245" height="1.245" rx=".622" fill="#01BCBA"/><rect x="47.752" y="57.402" width="1.245" height="1.245" rx=".622" fill="#01BCBA"/><rect x="47.752" y="66.929" width="1.245" height="1.245" rx=".622" fill="#01BCBA"/><rect x="47.752" y="76.455" width="1.245" height="1.245" rx=".622" fill="#01BCBA"/><rect x="47.752" y="85.981" width="1.245" height="1.245" rx=".622" fill="#01BCBA"/><rect x="47.752" y="95.508" width="1.245" height="1.245" rx=".622" fill="#01BCBA"/><rect x="47.752" y="105.034" width="1.245" height="1.245" rx=".622" fill="#01BCBA"/><rect x="47.752" y="114.561" width="1.245" height="1.245" rx=".622" fill="#01BCBA"/><rect x="47.752" y="124.087" width="1.245" height="1.245" rx=".622" fill="#01BCBA"/><rect x="57.278" y=".244" width="1.245" height="1.245" rx=".622" fill="#01BCBA"/><rect x="57.278" y="9.771" width="1.245" height="1.245" rx=".622" fill="#01BCBA"/><rect x="57.278" y="19.297" width="1.245" height="1.245" rx=".622" fill="#01BCBA"/><rect x="57.278" y="28.823" width="1.245" height="1.245" rx=".622" fill="#01BCBA"/><rect x="57.278" y="38.35" width="1.245" height="1.245" rx=".622" fill="#01BCBA"/><rect x="57.278" y="47.876" width="1.245" height="1.245" rx=".622" fill="#01BCBA"/><rect x="57.278" y="57.402" width="1.245" height="1.245" rx=".622" fill="#01BCBA"/><rect x="57.278" y="66.929" width="1.245" height="1.245" rx=".622" fill="#01BCBA"/><rect x="57.278" y="76.455" width="1.245" height="1.245" rx=".622" fill="#01BCBA"/><rect x="57.278" y="85.981" width="1.245" height="1.245" rx=".622" fill="#01BCBA"/><rect x="57.278" y="95.508" width="1.245" height="1.245" rx=".622" fill="#01BCBA"/><rect x="57.278" y="105.034" width="1.245" height="1.245" rx=".622" fill="#01BCBA"/><rect x="57.278" y="114.561" width="1.245" height="1.245" rx=".622" fill="#01BCBA"/><rect x="57.278" y="124.087" width="1.245" height="1.245" rx=".622" fill="#01BCBA"/><rect x="66.804" y=".244" width="1.245" height="1.245" rx=".622" fill="#01BCBA"/><rect x="66.804" y="9.771" width="1.245" height="1.245" rx=".622" fill="#01BCBA"/><rect x="66.804" y="19.297" width="1.245" height="1.245" rx=".622" fill="#01BCBA"/><rect x="66.804" y="28.823" width="1.245" height="1.245" rx=".622" fill="#01BCBA"/><rect x="66.804" y="38.35" width="1.245" height="1.245" rx=".622" fill="#01BCBA"/><rect x="66.804" y="47.876" width="1.245" height="1.245" rx=".622" fill="#01BCBA"/><rect x="66.804" y="57.402" width="1.245" height="1.245" rx=".622" fill="#01BCBA"/><rect x="66.804" y="66.929" width="1.245" height="1.245" rx=".622" fill="#01BCBA"/><rect x="66.804" y="76.455" width="1.245" height="1.245" rx=".622" fill="#01BCBA"/><rect x="66.804" y="85.981" width="1.245" height="1.245" rx=".622" fill="#01BCBA"/><rect x="66.804" y="95.508" width="1.245" height="1.245" rx=".622" fill="#01BCBA"/><rect x="66.804" y="105.034" width="1.245" height="1.245" rx=".622" fill="#01BCBA"/><rect x="66.804" y="114.561" width="1.245" height="1.245" rx=".622" fill="#01BCBA"/><rect x="66.804" y="124.087" width="1.245" height="1.245" rx=".622" fill="#01BCBA"/><rect x="76.331" y=".244" width="1.245" height="1.245" rx=".622" fill="#01BCBA"/><rect x="76.331" y="9.771" width="1.245" height="1.245" rx=".622" fill="#01BCBA"/><rect x="76.331" y="19.297" width="1.245" height="1.245" rx=".622" fill="#01BCBA"/><rect x="76.331" y="28.823" width="1.245" height="1.245" rx=".622" fill="#01BCBA"/><rect x="76.331" y="38.35" width="1.245" height="1.245" rx=".622" fill="#01BCBA"/><rect x="76.331" y="47.876" width="1.245" height="1.245" rx=".622" fill="#01BCBA"/><rect x="76.331" y="57.402" width="1.245" height="1.245" rx=".622" fill="#01BCBA"/><rect x="76.331" y="66.929" width="1.245" height="1.245" rx=".622" fill="#01BCBA"/><rect x="76.331" y="76.455" width="1.245" height="1.245" rx=".622" fill="#01BCBA"/><rect x="76.331" y="85.981" width="1.245" height="1.245" rx=".622" fill="#01BCBA"/><rect x="76.331" y="95.508" width="1.245" height="1.245" rx=".622" fill="#01BCBA"/><rect x="76.331" y="105.034" width="1.245" height="1.245" rx=".622" fill="#01BCBA"/><rect x="76.331" y="114.561" width="1.245" height="1.245" rx=".622" fill="#01BCBA"/><rect x="76.331" y="124.087" width="1.245" height="1.245" rx=".622" fill="#01BCBA"/><rect x="85.857" y=".244" width="1.245" height="1.245" rx=".622" fill="#01BCBA"/><rect x="85.857" y="9.771" width="1.245" height="1.245" rx=".622" fill="#01BCBA"/><rect x="85.857" y="19.297" width="1.245" height="1.245" rx=".622" fill="#01BCBA"/><rect x="85.857" y="28.823" width="1.245" height="1.245" rx=".622" fill="#01BCBA"/><rect x="85.857" y="38.35" width="1.245" height="1.245" rx=".622" fill="#01BCBA"/><rect x="85.857" y="47.876" width="1.245" height="1.245" rx=".622" fill="#01BCBA"/><rect x="85.857" y="57.402" width="1.245" height="1.245" rx=".622" fill="#01BCBA"/><rect x="85.857" y="66.929" width="1.245" height="1.245" rx=".622" fill="#01BCBA"/><rect x="85.857" y="76.455" width="1.245" height="1.245" rx=".622" fill="#01BCBA"/><rect x="85.857" y="85.981" width="1.245" height="1.245" rx=".622" fill="#01BCBA"/><rect x="85.857" y="95.508" width="1.245" height="1.245" rx=".622" fill="#01BCBA"/><rect x="85.857" y="105.034" width="1.245" height="1.245" rx=".622" fill="#01BCBA"/><rect x="85.857" y="114.561" width="1.245" height="1.245" rx=".622" fill="#01BCBA"/><rect x="85.857" y="124.087" width="1.245" height="1.245" rx=".622" fill="#01BCBA"/><rect x="95.384" y=".244" width="1.245" height="1.245" rx=".622" fill="#01BCBA"/><rect x="95.384" y="9.771" width="1.245" height="1.245" rx=".622" fill="#01BCBA"/><rect x="95.384" y="19.297" width="1.245" height="1.245" rx=".622" fill="#01BCBA"/><rect x="95.384" y="28.823" width="1.245" height="1.245" rx=".622" fill="#01BCBA"/><rect x="95.384" y="38.35" width="1.245" height="1.245" rx=".622" fill="#01BCBA"/><rect x="95.384" y="47.876" width="1.245" height="1.245" rx=".622" fill="#01BCBA"/><rect x="95.384" y="57.402" width="1.245" height="1.245" rx=".622" fill="#01BCBA"/><rect x="95.384" y="66.929" width="1.245" height="1.245" rx=".622" fill="#01BCBA"/><rect x="95.384" y="76.455" width="1.245" height="1.245" rx=".622" fill="#01BCBA"/><rect x="95.384" y="85.981" width="1.245" height="1.245" rx=".622" fill="#01BCBA"/><rect x="95.384" y="95.508" width="1.245" height="1.245" rx=".622" fill="#01BCBA"/><rect x="95.384" y="105.034" width="1.245" height="1.245" rx=".622" fill="#01BCBA"/><rect x="95.384" y="114.561" width="1.245" height="1.245" rx=".622" fill="#01BCBA"/><rect x="95.384" y="124.087" width="1.245" height="1.245" rx=".622" fill="#01BCBA"/><rect x="104.91" y=".244" width="1.245" height="1.245" rx=".622" fill="#01BCBA"/><rect x="104.91" y="9.771" width="1.245" height="1.245" rx=".622" fill="#01BCBA"/><rect x="104.91" y="19.297" width="1.245" height="1.245" rx=".622" fill="#01BCBA"/><rect x="104.91" y="28.823" width="1.245" height="1.245" rx=".622" fill="#01BCBA"/><rect x="104.91" y="38.35" width="1.245" height="1.245" rx=".622" fill="#01BCBA"/><rect x="104.91" y="47.876" width="1.245" height="1.245" rx=".622" fill="#01BCBA"/><rect x="104.91" y="57.402" width="1.245" height="1.245" rx=".622" fill="#01BCBA"/><rect x="104.91" y="66.929" width="1.245" height="1.245" rx=".622" fill="#01BCBA"/><rect x="104.91" y="76.455" width="1.245" height="1.245" rx=".622" fill="#01BCBA"/><rect x="104.91" y="85.981" width="1.245" height="1.245" rx=".622" fill="#01BCBA"/><rect x="104.91" y="95.508" width="1.245" height="1.245" rx=".622" fill="#01BCBA"/><rect x="104.91" y="105.034" width="1.245" height="1.245" rx=".622" fill="#01BCBA"/><rect x="104.91" y="114.561" width="1.245" height="1.245" rx=".622" fill="#01BCBA"/><rect x="104.91" y="124.087" width="1.245" height="1.245" rx=".622" fill="#01BCBA"/><rect x="114.436" y=".244" width="1.245" height="1.245" rx=".622" fill="#01BCBA"/><rect x="114.436" y="9.771" width="1.245" height="1.245" rx=".622" fill="#01BCBA"/><rect x="114.436" y="19.297" width="1.245" height="1.245" rx=".622" fill="#01BCBA"/><rect x="114.436" y="28.823" width="1.245" height="1.245" rx=".622" fill="#01BCBA"/><rect x="114.436" y="38.35" width="1.245" height="1.245" rx=".622" fill="#01BCBA"/><rect x="114.436" y="47.876" width="1.245" height="1.245" rx=".622" fill="#01BCBA"/><rect x="114.436" y="57.402" width="1.245" height="1.245" rx=".622" fill="#01BCBA"/><rect x="114.436" y="66.929" width="1.245" height="1.245" rx=".622" fill="#01BCBA"/><rect x="114.436" y="76.455" width="1.245" height="1.245" rx=".622" fill="#01BCBA"/><rect x="114.436" y="85.981" width="1.245" height="1.245" rx=".622" fill="#01BCBA"/><rect x="114.436" y="95.508" width="1.245" height="1.245" rx=".622" fill="#01BCBA"/><rect x="114.436" y="105.034" width="1.245" height="1.245" rx=".622" fill="#01BCBA"/><rect x="114.436" y="114.561" width="1.245" height="1.245" rx=".622" fill="#01BCBA"/><rect x="114.436" y="124.087" width="1.245" height="1.245" rx=".622" fill="#01BCBA"/><rect x="123.962" y=".244" width="1.245" height="1.245" rx=".622" fill="#01BCBA"/><rect x="123.962" y="9.771" width="1.245" height="1.245" rx=".622" fill="#01BCBA"/><rect x="123.962" y="19.297" width="1.245" height="1.245" rx=".622" fill="#01BCBA"/><rect x="123.962" y="28.823" width="1.245" height="1.245" rx=".622" fill="#01BCBA"/><rect x="123.962" y="38.35" width="1.245" height="1.245" rx=".622" fill="#01BCBA"/><rect x="123.962" y="47.876" width="1.245" height="1.245" rx=".622" fill="#01BCBA"/><rect x="123.962" y="57.402" width="1.245" height="1.245" rx=".622" fill="#01BCBA"/><rect x="123.962" y="66.929" width="1.245" height="1.245" rx=".622" fill="#01BCBA"/><rect x="123.962" y="76.455" width="1.245" height="1.245" rx=".622" fill="#01BCBA"/><rect x="123.962" y="85.981" width="1.245" height="1.245" rx=".622" fill="#01BCBA"/><rect x="123.962" y="95.508" width="1.245" height="1.245" rx=".622" fill="#01BCBA"/><rect x="123.962" y="105.034" width="1.245" height="1.245" rx=".622" fill="#01BCBA"/><rect x="123.962" y="114.561" width="1.245" height="1.245" rx=".622" fill="#01BCBA"/><rect x="123.962" y="124.087" width="1.245" height="1.245" rx=".622" fill="#01BCBA"/><rect x="133.488" y=".244" width="1.245" height="1.245" rx=".622" fill="#01BCBA"/><rect x="133.488" y="9.771" width="1.245" height="1.245" rx=".622" fill="#01BCBA"/><rect x="133.488" y="19.297" width="1.245" height="1.245" rx=".622" fill="#01BCBA"/><rect x="133.488" y="28.823" width="1.245" height="1.245" rx=".622" fill="#01BCBA"/><rect x="133.488" y="38.35" width="1.245" height="1.245" rx=".622" fill="#01BCBA"/><rect x="133.488" y="47.876" width="1.245" height="1.245" rx=".622" fill="#01BCBA"/><rect x="133.488" y="57.402" width="1.245" height="1.245" rx=".622" fill="#01BCBA"/><rect x="133.488" y="66.929" width="1.245" height="1.245" rx=".622" fill="#01BCBA"/><rect x="133.488" y="76.455" width="1.245" height="1.245" rx=".622" fill="#01BCBA"/><rect x="133.488" y="85.981" width="1.245" height="1.245" rx=".622" fill="#01BCBA"/><rect x="133.488" y="95.508" width="1.245" height="1.245" rx=".622" fill="#01BCBA"/><rect x="133.488" y="105.034" width="1.245" height="1.245" rx=".622" fill="#01BCBA"/><rect x="133.488" y="114.561" width="1.245" height="1.245" rx=".622" fill="#01BCBA"/><rect x="133.488" y="124.087" width="1.245" height="1.245" rx=".622" fill="#01BCBA"/></svg>