<svg version="1.2" xmlns="http://www.w3.org/2000/svg" viewBox="0 0 423 513" width="423" height="513">
	<title>dotted-bg</title>
	<style>
		.s0 { fill: #f1f5f9 } 
	</style>
	<path id="Bentuk 2" class="s0" d="m9 512.4c-4.7 0-8.5-3.8-8.5-8.5c0-4.7 3.8-8.5 8.5-8.5c4.7 0 8.5 3.8 8.5 8.5c0 4.7-3.8 8.5-8.5 8.5zm405 0c-4.7 0-8.5-3.8-8.5-8.5c0-4.7 3.8-8.5 8.5-8.5c4.7 0 8.5 3.8 8.5 8.5c0 4.7-3.8 8.5-8.5 8.5zm-45 0c-4.7 0-8.5-3.8-8.5-8.5c0-4.7 3.8-8.5 8.5-8.5c4.7 0 8.5 3.8 8.5 8.5c0 4.7-3.8 8.5-8.5 8.5zm-45 0c-4.7 0-8.5-3.8-8.5-8.5c0-4.7 3.8-8.5 8.5-8.5c4.7 0 8.5 3.8 8.5 8.5c0 4.7-3.8 8.5-8.5 8.5zm-45 0c-4.7 0-8.5-3.8-8.5-8.5c0-4.7 3.8-8.5 8.5-8.5c4.7 0 8.5 3.8 8.5 8.5c0 4.7-3.8 8.5-8.5 8.5zm-45 0c-4.7 0-8.5-3.8-8.5-8.5c0-4.7 3.8-8.5 8.5-8.5c4.7 0 8.5 3.8 8.5 8.5c0 4.7-3.8 8.5-8.5 8.5zm-45 0c-4.7 0-8.5-3.8-8.5-8.5c0-4.7 3.8-8.5 8.5-8.5c4.7 0 8.5 3.8 8.5 8.5c0 4.7-3.8 8.5-8.5 8.5zm-45 0c-4.7 0-8.5-3.8-8.5-8.5c0-4.7 3.8-8.5 8.5-8.5c4.7 0 8.5 3.8 8.5 8.5c0 4.7-3.8 8.5-8.5 8.5zm-45 0c-4.7 0-8.5-3.8-8.5-8.5c0-4.7 3.8-8.5 8.5-8.5c4.7 0 8.5 3.8 8.5 8.5c0 4.7-3.8 8.5-8.5 8.5zm-45 0c-4.7 0-8.5-3.8-8.5-8.5c0-4.7 3.8-8.5 8.5-8.5c4.7 0 8.5 3.8 8.5 8.5c0 4.7-3.8 8.5-8.5 8.5zm-45-45c-4.7 0-8.5-3.8-8.5-8.5c0-4.7 3.8-8.5 8.5-8.5c4.7 0 8.5 3.8 8.5 8.5c0 4.7-3.8 8.5-8.5 8.5zm405 0c-4.7 0-8.5-3.8-8.5-8.5c0-4.7 3.8-8.5 8.5-8.5c4.7 0 8.5 3.8 8.5 8.5c0 4.7-3.8 8.5-8.5 8.5zm-45 0c-4.7 0-8.5-3.8-8.5-8.5c0-4.7 3.8-8.5 8.5-8.5c4.7 0 8.5 3.8 8.5 8.5c0 4.7-3.8 8.5-8.5 8.5zm-45 0c-4.7 0-8.5-3.8-8.5-8.5c0-4.7 3.8-8.5 8.5-8.5c4.7 0 8.5 3.8 8.5 8.5c0 4.7-3.8 8.5-8.5 8.5zm-45 0c-4.7 0-8.5-3.8-8.5-8.5c0-4.7 3.8-8.5 8.5-8.5c4.7 0 8.5 3.8 8.5 8.5c0 4.7-3.8 8.5-8.5 8.5zm-45 0c-4.7 0-8.5-3.8-8.5-8.5c0-4.7 3.8-8.5 8.5-8.5c4.7 0 8.5 3.8 8.5 8.5c0 4.7-3.8 8.5-8.5 8.5zm-45 0c-4.7 0-8.5-3.8-8.5-8.5c0-4.7 3.8-8.5 8.5-8.5c4.7 0 8.5 3.8 8.5 8.5c0 4.7-3.8 8.5-8.5 8.5zm-45 0c-4.7 0-8.5-3.8-8.5-8.5c0-4.7 3.8-8.5 8.5-8.5c4.7 0 8.5 3.8 8.5 8.5c0 4.7-3.8 8.5-8.5 8.5zm-45 0c-4.7 0-8.5-3.8-8.5-8.5c0-4.7 3.8-8.5 8.5-8.5c4.7 0 8.5 3.8 8.5 8.5c0 4.7-3.8 8.5-8.5 8.5zm-45 0c-4.7 0-8.5-3.8-8.5-8.5c0-4.7 3.8-8.5 8.5-8.5c4.7 0 8.5 3.8 8.5 8.5c0 4.7-3.8 8.5-8.5 8.5zm-45-45c-4.7 0-8.5-3.8-8.5-8.5c0-4.7 3.8-8.5 8.5-8.5c4.7 0 8.5 3.8 8.5 8.5c0 4.7-3.8 8.5-8.5 8.5zm405 0c-4.7 0-8.5-3.8-8.5-8.5c0-4.7 3.8-8.5 8.5-8.5c4.7 0 8.5 3.8 8.5 8.5c0 4.7-3.8 8.5-8.5 8.5zm-45 0c-4.7 0-8.5-3.8-8.5-8.5c0-4.7 3.8-8.5 8.5-8.5c4.7 0 8.5 3.8 8.5 8.5c0 4.7-3.8 8.5-8.5 8.5zm-45 0c-4.7 0-8.5-3.8-8.5-8.5c0-4.7 3.8-8.5 8.5-8.5c4.7 0 8.5 3.8 8.5 8.5c0 4.7-3.8 8.5-8.5 8.5zm-45 0c-4.7 0-8.5-3.8-8.5-8.5c0-4.7 3.8-8.5 8.5-8.5c4.7 0 8.5 3.8 8.5 8.5c0 4.7-3.8 8.5-8.5 8.5zm-45 0c-4.7 0-8.5-3.8-8.5-8.5c0-4.7 3.8-8.5 8.5-8.5c4.7 0 8.5 3.8 8.5 8.5c0 4.7-3.8 8.5-8.5 8.5zm-45 0c-4.7 0-8.5-3.8-8.5-8.5c0-4.7 3.8-8.5 8.5-8.5c4.7 0 8.5 3.8 8.5 8.5c0 4.7-3.8 8.5-8.5 8.5zm-45 0c-4.7 0-8.5-3.8-8.5-8.5c0-4.7 3.8-8.5 8.5-8.5c4.7 0 8.5 3.8 8.5 8.5c0 4.7-3.8 8.5-8.5 8.5zm-45 0c-4.7 0-8.5-3.8-8.5-8.5c0-4.7 3.8-8.5 8.5-8.5c4.7 0 8.5 3.8 8.5 8.5c0 4.7-3.8 8.5-8.5 8.5zm-45 0c-4.7 0-8.5-3.8-8.5-8.5c0-4.7 3.8-8.5 8.5-8.5c4.7 0 8.5 3.8 8.5 8.5c0 4.7-3.8 8.5-8.5 8.5zm-45-45c-4.7 0-8.5-3.8-8.5-8.5c0-4.7 3.8-8.5 8.5-8.5c4.7 0 8.5 3.8 8.5 8.5c0 4.7-3.8 8.5-8.5 8.5zm405 0c-4.7 0-8.5-3.8-8.5-8.5c0-4.7 3.8-8.5 8.5-8.5c4.7 0 8.5 3.8 8.5 8.5c0 4.7-3.8 8.5-8.5 8.5zm-45 0c-4.7 0-8.5-3.8-8.5-8.5c0-4.7 3.8-8.5 8.5-8.5c4.7 0 8.5 3.8 8.5 8.5c0 4.7-3.8 8.5-8.5 8.5zm-45 0c-4.7 0-8.5-3.8-8.5-8.5c0-4.7 3.8-8.5 8.5-8.5c4.7 0 8.5 3.8 8.5 8.5c0 4.7-3.8 8.5-8.5 8.5zm-45 0c-4.7 0-8.5-3.8-8.5-8.5c0-4.7 3.8-8.5 8.5-8.5c4.7 0 8.5 3.8 8.5 8.5c0 4.7-3.8 8.5-8.5 8.5zm-45 0c-4.7 0-8.5-3.8-8.5-8.5c0-4.7 3.8-8.5 8.5-8.5c4.7 0 8.5 3.8 8.5 8.5c0 4.7-3.8 8.5-8.5 8.5zm-45 0c-4.7 0-8.5-3.8-8.5-8.5c0-4.7 3.8-8.5 8.5-8.5c4.7 0 8.5 3.8 8.5 8.5c0 4.7-3.8 8.5-8.5 8.5zm-45 0c-4.7 0-8.5-3.8-8.5-8.5c0-4.7 3.8-8.5 8.5-8.5c4.7 0 8.5 3.8 8.5 8.5c0 4.7-3.8 8.5-8.5 8.5zm-45 0c-4.7 0-8.5-3.8-8.5-8.5c0-4.7 3.8-8.5 8.5-8.5c4.7 0 8.5 3.8 8.5 8.5c0 4.7-3.8 8.5-8.5 8.5zm-45 0c-4.7 0-8.5-3.8-8.5-8.5c0-4.7 3.8-8.5 8.5-8.5c4.7 0 8.5 3.8 8.5 8.5c0 4.7-3.8 8.5-8.5 8.5zm-45-45c-4.7 0-8.5-3.8-8.5-8.5c0-4.7 3.8-8.5 8.5-8.5c4.7 0 8.5 3.8 8.5 8.5c0 4.7-3.8 8.5-8.5 8.5zm405 0c-4.7 0-8.5-3.8-8.5-8.5c0-4.7 3.8-8.5 8.5-8.5c4.7 0 8.5 3.8 8.5 8.5c0 4.7-3.8 8.5-8.5 8.5zm-45 0c-4.7 0-8.5-3.8-8.5-8.5c0-4.7 3.8-8.5 8.5-8.5c4.7 0 8.5 3.8 8.5 8.5c0 4.7-3.8 8.5-8.5 8.5zm-45 0c-4.7 0-8.5-3.8-8.5-8.5c0-4.7 3.8-8.5 8.5-8.5c4.7 0 8.5 3.8 8.5 8.5c0 4.7-3.8 8.5-8.5 8.5zm-45 0c-4.7 0-8.5-3.8-8.5-8.5c0-4.7 3.8-8.5 8.5-8.5c4.7 0 8.5 3.8 8.5 8.5c0 4.7-3.8 8.5-8.5 8.5zm-45 0c-4.7 0-8.5-3.8-8.5-8.5c0-4.7 3.8-8.5 8.5-8.5c4.7 0 8.5 3.8 8.5 8.5c0 4.7-3.8 8.5-8.5 8.5zm-45 0c-4.7 0-8.5-3.8-8.5-8.5c0-4.7 3.8-8.5 8.5-8.5c4.7 0 8.5 3.8 8.5 8.5c0 4.7-3.8 8.5-8.5 8.5zm-45 0c-4.7 0-8.5-3.8-8.5-8.5c0-4.7 3.8-8.5 8.5-8.5c4.7 0 8.5 3.8 8.5 8.5c0 4.7-3.8 8.5-8.5 8.5zm-45 0c-4.7 0-8.5-3.8-8.5-8.5c0-4.7 3.8-8.5 8.5-8.5c4.7 0 8.5 3.8 8.5 8.5c0 4.7-3.8 8.5-8.5 8.5zm-45 0c-4.7 0-8.5-3.8-8.5-8.5c0-4.7 3.8-8.5 8.5-8.5c4.7 0 8.5 3.8 8.5 8.5c0 4.7-3.8 8.5-8.5 8.5zm-45-45c-4.7 0-8.5-3.8-8.5-8.5c0-4.7 3.8-8.5 8.5-8.5c4.7 0 8.5 3.8 8.5 8.5c0 4.7-3.8 8.5-8.5 8.5zm405 0c-4.7 0-8.5-3.8-8.5-8.5c0-4.7 3.8-8.5 8.5-8.5c4.7 0 8.5 3.8 8.5 8.5c0 4.7-3.8 8.5-8.5 8.5zm-45 0c-4.7 0-8.5-3.8-8.5-8.5c0-4.7 3.8-8.5 8.5-8.5c4.7 0 8.5 3.8 8.5 8.5c0 4.7-3.8 8.5-8.5 8.5zm-45 0c-4.7 0-8.5-3.8-8.5-8.5c0-4.7 3.8-8.5 8.5-8.5c4.7 0 8.5 3.8 8.5 8.5c0 4.7-3.8 8.5-8.5 8.5zm-45 0c-4.7 0-8.5-3.8-8.5-8.5c0-4.7 3.8-8.5 8.5-8.5c4.7 0 8.5 3.8 8.5 8.5c0 4.7-3.8 8.5-8.5 8.5zm-45 0c-4.7 0-8.5-3.8-8.5-8.5c0-4.7 3.8-8.5 8.5-8.5c4.7 0 8.5 3.8 8.5 8.5c0 4.7-3.8 8.5-8.5 8.5zm-45 0c-4.7 0-8.5-3.8-8.5-8.5c0-4.7 3.8-8.5 8.5-8.5c4.7 0 8.5 3.8 8.5 8.5c0 4.7-3.8 8.5-8.5 8.5zm-45 0c-4.7 0-8.5-3.8-8.5-8.5c0-4.7 3.8-8.5 8.5-8.5c4.7 0 8.5 3.8 8.5 8.5c0 4.7-3.8 8.5-8.5 8.5zm-45 0c-4.7 0-8.5-3.8-8.5-8.5c0-4.7 3.8-8.5 8.5-8.5c4.7 0 8.5 3.8 8.5 8.5c0 4.7-3.8 8.5-8.5 8.5zm-45 0c-4.7 0-8.5-3.8-8.5-8.5c0-4.7 3.8-8.5 8.5-8.5c4.7 0 8.5 3.8 8.5 8.5c0 4.7-3.8 8.5-8.5 8.5zm-45-45c-4.7 0-8.5-3.8-8.5-8.5c0-4.7 3.8-8.5 8.5-8.5c4.7 0 8.5 3.8 8.5 8.5c0 4.7-3.8 8.5-8.5 8.5zm405 0c-4.7 0-8.5-3.8-8.5-8.5c0-4.7 3.8-8.5 8.5-8.5c4.7 0 8.5 3.8 8.5 8.5c0 4.7-3.8 8.5-8.5 8.5zm-45 0c-4.7 0-8.5-3.8-8.5-8.5c0-4.7 3.8-8.5 8.5-8.5c4.7 0 8.5 3.8 8.5 8.5c0 4.7-3.8 8.5-8.5 8.5zm-45 0c-4.7 0-8.5-3.8-8.5-8.5c0-4.7 3.8-8.5 8.5-8.5c4.7 0 8.5 3.8 8.5 8.5c0 4.7-3.8 8.5-8.5 8.5zm-45 0c-4.7 0-8.5-3.8-8.5-8.5c0-4.7 3.8-8.5 8.5-8.5c4.7 0 8.5 3.8 8.5 8.5c0 4.7-3.8 8.5-8.5 8.5zm-45 0c-4.7 0-8.5-3.8-8.5-8.5c0-4.7 3.8-8.5 8.5-8.5c4.7 0 8.5 3.8 8.5 8.5c0 4.7-3.8 8.5-8.5 8.5zm-45 0c-4.7 0-8.5-3.8-8.5-8.5c0-4.7 3.8-8.5 8.5-8.5c4.7 0 8.5 3.8 8.5 8.5c0 4.7-3.8 8.5-8.5 8.5zm-45 0c-4.7 0-8.5-3.8-8.5-8.5c0-4.7 3.8-8.5 8.5-8.5c4.7 0 8.5 3.8 8.5 8.5c0 4.7-3.8 8.5-8.5 8.5zm-45 0c-4.7 0-8.5-3.8-8.5-8.5c0-4.7 3.8-8.5 8.5-8.5c4.7 0 8.5 3.8 8.5 8.5c0 4.7-3.8 8.5-8.5 8.5zm-45 0c-4.7 0-8.5-3.8-8.5-8.5c0-4.7 3.8-8.5 8.5-8.5c4.7 0 8.5 3.8 8.5 8.5c0 4.7-3.8 8.5-8.5 8.5zm-45-45c-4.7 0-8.5-3.8-8.5-8.5c0-4.7 3.8-8.5 8.5-8.5c4.7 0 8.5 3.8 8.5 8.5c0 4.7-3.8 8.5-8.5 8.5zm405 0c-4.7 0-8.5-3.8-8.5-8.5c0-4.7 3.8-8.5 8.5-8.5c4.7 0 8.5 3.8 8.5 8.5c0 4.7-3.8 8.5-8.5 8.5zm-45 0c-4.7 0-8.5-3.8-8.5-8.5c0-4.7 3.8-8.5 8.5-8.5c4.7 0 8.5 3.8 8.5 8.5c0 4.7-3.8 8.5-8.5 8.5zm-45 0c-4.7 0-8.5-3.8-8.5-8.5c0-4.7 3.8-8.5 8.5-8.5c4.7 0 8.5 3.8 8.5 8.5c0 4.7-3.8 8.5-8.5 8.5zm-45 0c-4.7 0-8.5-3.8-8.5-8.5c0-4.7 3.8-8.5 8.5-8.5c4.7 0 8.5 3.8 8.5 8.5c0 4.7-3.8 8.5-8.5 8.5zm-45 0c-4.7 0-8.5-3.8-8.5-8.5c0-4.7 3.8-8.5 8.5-8.5c4.7 0 8.5 3.8 8.5 8.5c0 4.7-3.8 8.5-8.5 8.5zm-45 0c-4.7 0-8.5-3.8-8.5-8.5c0-4.7 3.8-8.5 8.5-8.5c4.7 0 8.5 3.8 8.5 8.5c0 4.7-3.8 8.5-8.5 8.5zm-45 0c-4.7 0-8.5-3.8-8.5-8.5c0-4.7 3.8-8.5 8.5-8.5c4.7 0 8.5 3.8 8.5 8.5c0 4.7-3.8 8.5-8.5 8.5zm-45 0c-4.7 0-8.5-3.8-8.5-8.5c0-4.7 3.8-8.5 8.5-8.5c4.7 0 8.5 3.8 8.5 8.5c0 4.7-3.8 8.5-8.5 8.5zm-45 0c-4.7 0-8.5-3.8-8.5-8.5c0-4.7 3.8-8.5 8.5-8.5c4.7 0 8.5 3.8 8.5 8.5c0 4.7-3.8 8.5-8.5 8.5zm-45-45c-4.7 0-8.5-3.8-8.5-8.5c0-4.7 3.8-8.5 8.5-8.5c4.7 0 8.5 3.8 8.5 8.5c0 4.7-3.8 8.5-8.5 8.5zm405 0c-4.7 0-8.5-3.8-8.5-8.5c0-4.7 3.8-8.5 8.5-8.5c4.7 0 8.5 3.8 8.5 8.5c0 4.7-3.8 8.5-8.5 8.5zm-45 0c-4.7 0-8.5-3.8-8.5-8.5c0-4.7 3.8-8.5 8.5-8.5c4.7 0 8.5 3.8 8.5 8.5c0 4.7-3.8 8.5-8.5 8.5zm-45 0c-4.7 0-8.5-3.8-8.5-8.5c0-4.7 3.8-8.5 8.5-8.5c4.7 0 8.5 3.8 8.5 8.5c0 4.7-3.8 8.5-8.5 8.5zm-45 0c-4.7 0-8.5-3.8-8.5-8.5c0-4.7 3.8-8.5 8.5-8.5c4.7 0 8.5 3.8 8.5 8.5c0 4.7-3.8 8.5-8.5 8.5zm-45 0c-4.7 0-8.5-3.8-8.5-8.5c0-4.7 3.8-8.5 8.5-8.5c4.7 0 8.5 3.8 8.5 8.5c0 4.7-3.8 8.5-8.5 8.5zm-45 0c-4.7 0-8.5-3.8-8.5-8.5c0-4.7 3.8-8.5 8.5-8.5c4.7 0 8.5 3.8 8.5 8.5c0 4.7-3.8 8.5-8.5 8.5zm-45 0c-4.7 0-8.5-3.8-8.5-8.5c0-4.7 3.8-8.5 8.5-8.5c4.7 0 8.5 3.8 8.5 8.5c0 4.7-3.8 8.5-8.5 8.5zm-45 0c-4.7 0-8.5-3.8-8.5-8.5c0-4.7 3.8-8.5 8.5-8.5c4.7 0 8.5 3.8 8.5 8.5c0 4.7-3.8 8.5-8.5 8.5zm-45 0c-4.7 0-8.5-3.8-8.5-8.5c0-4.7 3.8-8.5 8.5-8.5c4.7 0 8.5 3.8 8.5 8.5c0 4.7-3.8 8.5-8.5 8.5zm-45-45c-4.7 0-8.5-3.8-8.5-8.5c0-4.7 3.8-8.5 8.5-8.5c4.7 0 8.5 3.8 8.5 8.5c0 4.7-3.8 8.5-8.5 8.5zm405 0c-4.7 0-8.5-3.8-8.5-8.5c0-4.7 3.8-8.5 8.5-8.5c4.7 0 8.5 3.8 8.5 8.5c0 4.7-3.8 8.5-8.5 8.5zm-45 0c-4.7 0-8.5-3.8-8.5-8.5c0-4.7 3.8-8.5 8.5-8.5c4.7 0 8.5 3.8 8.5 8.5c0 4.7-3.8 8.5-8.5 8.5zm-45 0c-4.7 0-8.5-3.8-8.5-8.5c0-4.7 3.8-8.5 8.5-8.5c4.7 0 8.5 3.8 8.5 8.5c0 4.7-3.8 8.5-8.5 8.5zm-45 0c-4.7 0-8.5-3.8-8.5-8.5c0-4.7 3.8-8.5 8.5-8.5c4.7 0 8.5 3.8 8.5 8.5c0 4.7-3.8 8.5-8.5 8.5zm-45 0c-4.7 0-8.5-3.8-8.5-8.5c0-4.7 3.8-8.5 8.5-8.5c4.7 0 8.5 3.8 8.5 8.5c0 4.7-3.8 8.5-8.5 8.5zm-45 0c-4.7 0-8.5-3.8-8.5-8.5c0-4.7 3.8-8.5 8.5-8.5c4.7 0 8.5 3.8 8.5 8.5c0 4.7-3.8 8.5-8.5 8.5zm-45 0c-4.7 0-8.5-3.8-8.5-8.5c0-4.7 3.8-8.5 8.5-8.5c4.7 0 8.5 3.8 8.5 8.5c0 4.7-3.8 8.5-8.5 8.5zm-45 0c-4.7 0-8.5-3.8-8.5-8.5c0-4.7 3.8-8.5 8.5-8.5c4.7 0 8.5 3.8 8.5 8.5c0 4.7-3.8 8.5-8.5 8.5zm-45 0c-4.7 0-8.5-3.8-8.5-8.5c0-4.7 3.8-8.5 8.5-8.5c4.7 0 8.5 3.8 8.5 8.5c0 4.7-3.8 8.5-8.5 8.5zm-45-45c-4.7 0-8.5-3.8-8.5-8.5c0-4.7 3.8-8.5 8.5-8.5c4.7 0 8.5 3.8 8.5 8.5c0 4.7-3.8 8.5-8.5 8.5zm405 0c-4.7 0-8.5-3.8-8.5-8.5c0-4.7 3.8-8.5 8.5-8.5c4.7 0 8.5 3.8 8.5 8.5c0 4.7-3.8 8.5-8.5 8.5zm-45 0c-4.7 0-8.5-3.8-8.5-8.5c0-4.7 3.8-8.5 8.5-8.5c4.7 0 8.5 3.8 8.5 8.5c0 4.7-3.8 8.5-8.5 8.5zm-45 0c-4.7 0-8.5-3.8-8.5-8.5c0-4.7 3.8-8.5 8.5-8.5c4.7 0 8.5 3.8 8.5 8.5c0 4.7-3.8 8.5-8.5 8.5zm-45 0c-4.7 0-8.5-3.8-8.5-8.5c0-4.7 3.8-8.5 8.5-8.5c4.7 0 8.5 3.8 8.5 8.5c0 4.7-3.8 8.5-8.5 8.5zm-45 0c-4.7 0-8.5-3.8-8.5-8.5c0-4.7 3.8-8.5 8.5-8.5c4.7 0 8.5 3.8 8.5 8.5c0 4.7-3.8 8.5-8.5 8.5zm-45 0c-4.7 0-8.5-3.8-8.5-8.5c0-4.7 3.8-8.5 8.5-8.5c4.7 0 8.5 3.8 8.5 8.5c0 4.7-3.8 8.5-8.5 8.5zm-45 0c-4.7 0-8.5-3.8-8.5-8.5c0-4.7 3.8-8.5 8.5-8.5c4.7 0 8.5 3.8 8.5 8.5c0 4.7-3.8 8.5-8.5 8.5zm-45 0c-4.7 0-8.5-3.8-8.5-8.5c0-4.7 3.8-8.5 8.5-8.5c4.7 0 8.5 3.8 8.5 8.5c0 4.7-3.8 8.5-8.5 8.5zm-45 0c-4.7 0-8.5-3.8-8.5-8.5c0-4.7 3.8-8.5 8.5-8.5c4.7 0 8.5 3.8 8.5 8.5c0 4.7-3.8 8.5-8.5 8.5zm-45-45c-4.7 0-8.5-3.8-8.5-8.5c0-4.7 3.8-8.5 8.5-8.5c4.7 0 8.5 3.8 8.5 8.5c0 4.7-3.8 8.5-8.5 8.5zm405 0c-4.7 0-8.5-3.8-8.5-8.5c0-4.7 3.8-8.5 8.5-8.5c4.7 0 8.5 3.8 8.5 8.5c0 4.7-3.8 8.5-8.5 8.5zm-45 0c-4.7 0-8.5-3.8-8.5-8.5c0-4.7 3.8-8.5 8.5-8.5c4.7 0 8.5 3.8 8.5 8.5c0 4.7-3.8 8.5-8.5 8.5zm-45 0c-4.7 0-8.5-3.8-8.5-8.5c0-4.7 3.8-8.5 8.5-8.5c4.7 0 8.5 3.8 8.5 8.5c0 4.7-3.8 8.5-8.5 8.5zm-45 0c-4.7 0-8.5-3.8-8.5-8.5c0-4.7 3.8-8.5 8.5-8.5c4.7 0 8.5 3.8 8.5 8.5c0 4.7-3.8 8.5-8.5 8.5zm-45 0c-4.7 0-8.5-3.8-8.5-8.5c0-4.7 3.8-8.5 8.5-8.5c4.7 0 8.5 3.8 8.5 8.5c0 4.7-3.8 8.5-8.5 8.5zm-45 0c-4.7 0-8.5-3.8-8.5-8.5c0-4.7 3.8-8.5 8.5-8.5c4.7 0 8.5 3.8 8.5 8.5c0 4.7-3.8 8.5-8.5 8.5zm-45 0c-4.7 0-8.5-3.8-8.5-8.5c0-4.7 3.8-8.5 8.5-8.5c4.7 0 8.5 3.8 8.5 8.5c0 4.7-3.8 8.5-8.5 8.5zm-45 0c-4.7 0-8.5-3.8-8.5-8.5c0-4.7 3.8-8.5 8.5-8.5c4.7 0 8.5 3.8 8.5 8.5c0 4.7-3.8 8.5-8.5 8.5zm-45 0c-4.7 0-8.5-3.8-8.5-8.5c0-4.7 3.8-8.5 8.5-8.5c4.7 0 8.5 3.8 8.5 8.5c0 4.7-3.8 8.5-8.5 8.5z" />
</svg>