<?xml version="1.0" encoding="utf-8"?>
<!-- Generator: Adobe Illustrator 23.0.5, SVG Export Plug-In . SVG Version: 6.00 Build 0)  -->
<svg version="1.1" id="Layer_1" xmlns="http://www.w3.org/2000/svg" xmlns:xlink="http://www.w3.org/1999/xlink" x="0px" y="0px"
	 viewBox="0 0 1000 1000" style="enable-background:new 0 0 1000 1000;" xml:space="preserve">
<style type="text/css">
	.st0{clip-path:url(#SVGID_2_);fill:#14B8A6;}
</style>
<g>
	<defs>
		<rect id="SVGID_1_" width="1000" height="1000"/>
	</defs>
	<clipPath id="SVGID_2_">
		<use xlink:href="#SVGID_1_"  style="overflow:visible;"/>
	</clipPath>
	<path class="st0" d="M102.79,432.87c14.19,0,26.07,4.92,35.64,14.75c9.57,9.83,14.36,22.17,14.36,37.01
		c0,14.98-4.95,27.34-14.84,37.11c-9.9,9.77-22.4,14.65-37.5,14.65c-15.37,0-27.9-4.85-37.6-14.55c-9.7-9.7-14.55-22.04-14.55-37.01
		V382.09h19.53v67.97c3.64-5.21,8.62-9.38,14.94-12.5C89.09,434.43,95.76,432.87,102.79,432.87 M68.23,484.63
		c0,9.64,2.96,17.51,8.89,23.63c5.92,6.12,13.77,9.18,23.53,9.18c9.24,0,16.93-3.09,23.05-9.28c6.12-6.18,9.18-14.03,9.18-23.54
		c0-9.38-3.06-17.19-9.18-23.44c-6.12-6.25-13.8-9.38-23.05-9.38c-9.37,0-17.12,3.13-23.24,9.38
		C71.28,467.44,68.23,475.25,68.23,484.63"/>
	<path class="st0" d="M253.77,488.53c0,14.84-4.27,26.53-12.79,35.06c-8.53,8.53-19.63,12.79-33.3,12.79
		c-13.67,0-24.77-4.26-33.3-12.79c-8.53-8.53-12.79-20.21-12.79-35.06v-53.71h19.53v53.71c0,9.25,2.44,16.38,7.32,21.39
		c4.88,5.01,11.29,7.52,19.24,7.52c7.94,0,14.36-2.51,19.24-7.52c4.88-5.01,7.32-12.14,7.32-21.39v-53.71h19.53V488.53z"/>
	<path class="st0" d="M268.15,480.14c0-14.97,4.39-26.76,13.18-35.35c8.79-8.59,20.21-12.89,34.27-12.89
		c14.06,0,25.49,4.3,34.28,12.89c8.79,8.59,13.18,20.38,13.18,35.35v53.32h-22.15v-52.93c0-9.38,0.05-14.04-5.09-19.25
		c-5.14-5.21-11.88-7.81-20.21-7.81s-15.07,2.61-20.21,7.81c-5.14,5.21-5.09,9.88-5.09,19.25v52.93h-22.16V480.14z"/>
	<path class="st0" d="M523.77,520.86c-9.83,9.7-22.3,14.55-37.4,14.55c-15.11,0-27.57-4.85-37.4-14.55
		c-9.83-9.7-14.74-22.1-14.74-37.21c0-14.97,4.91-27.34,14.74-37.11c9.83-9.77,22.3-14.65,37.4-14.65c15.1,0,27.57,4.88,37.4,14.65
		c9.83,9.76,14.75,22.14,14.75,37.11C538.52,498.76,533.6,511.16,523.77,520.86 M463.23,507.19c6.05,6.19,13.77,9.28,23.14,9.28
		c9.37,0,17.09-3.09,23.14-9.28c6.05-6.18,9.08-14.03,9.08-23.54c0-9.5-3.03-17.35-9.08-23.53c-6.06-6.18-13.77-9.28-23.14-9.28
		c-9.38,0-17.09,3.09-23.14,9.28c-6.06,6.19-9.08,14.03-9.08,23.53C454.15,493.16,457.17,501,463.23,507.19"/>
	<path class="st0" d="M639.43,476.81v57.62h-21.26v-57.62c0-7.81-2.23-13.93-6.7-18.36c-4.47-4.42-10.31-6.64-17.54-6.64
		c-7.09,0-12.9,2.22-17.44,6.64c-4.54,4.43-6.8,10.55-6.8,18.36v57.62h-21.26v-57.62c0-13.41,4.18-24.09,12.54-32.03
		c8.36-7.94,19.07-11.91,32.11-11.91c16.02,0,27.92,5.73,35.72,17.19c7.79-11.46,19.7-17.19,35.72-17.19
		c13.04,0,23.74,3.94,32.11,11.82c8.36,7.88,12.55,18.59,12.55,32.13v57.62h-21.26v-57.62c0-7.81-2.23-13.93-6.7-18.36
		c-4.47-4.42-10.31-6.64-17.54-6.64c-7.09,0-12.9,2.22-17.43,6.64C641.7,462.88,639.43,469,639.43,476.81"/>
	<path class="st0" d="M822.57,483.85v50.12h-23.43v-13.85c-8.16,9.58-18.99,15.69-34.29,15.69c-28.15,0-48.74-21.8-48.74-51.95
		c0-30.15,22.23-51.95,53.23-51.95C800.34,431.89,822.57,453.69,822.57,483.85 M801.77,483.85c0-19.56-13.46-33.82-32.22-33.82
		c-18.56,0-32.02,14.26-32.02,33.82c0,19.76,13.46,33.82,32.02,33.82C788.31,517.67,801.77,503.61,801.77,483.85"/>
	<path class="st0" d="M834.31,533.97v-68.89c0-12.52,0.86-19.26,7.62-26.08c6.84-6.9,14.63-6.1,27.39-6.1l-0.53,19.99
		c-13.58,0-13.71,4.04-13.71,19.58v61.51H834.31z"/>
	<path class="st0" d="M435.89,513.04v21.39H405.2c-13.02,0-23.57-10.55-23.57-23.57v-58.01h-18.56v-20h18.56v-26.9h23.94v26.9h28.45
		v20h-28.45v55.49c0,2.59,2.1,4.7,4.7,4.7H435.89z"/>
	<path class="st0" d="M951.7,513.04v21.39h-30.69c-13.02,0-23.57-10.55-23.57-23.57v-58.01h-34.31v-20h34.31v-26.9h23.94v26.9h28.45
		v20h-28.45v55.49c0,2.59,2.1,4.7,4.7,4.7H951.7z"/>
</g>
</svg>
